<?xml version="1.0" encoding="utf-8"?>
<!-- Generator: Adobe Illustrator 24.3.0, SVG Export Plug-In . SVG Version: 6.00 Build 0)  -->
<svg version="1.1" id="Layer_1" xmlns="http://www.w3.org/2000/svg" xmlns:xlink="http://www.w3.org/1999/xlink" x="0px" y="0px"
	 viewBox="0 0 1366 768" style="enable-background:new 0 0 1366 768;" xml:space="preserve">
<style type="text/css">
	.st0{opacity:0.1;fill:none;stroke:#939393;stroke-width:4;stroke-miterlimit:10;}
	.st1{opacity:0.1;fill:#939393;}
</style>
<circle class="st0" cx="129.5" cy="94.5" r="24.5"/>
<circle class="st0" cx="265" cy="468" r="15.5"/>
<circle class="st1" cx="1021.5" cy="143.5" r="16"/>
<circle class="st0" cx="732.5" cy="514.5" r="7"/>
<circle class="st0" cx="527.5" cy="228.5" r="24.5"/>
<circle class="st0" cx="1216.5" cy="692.5" r="7"/>
<circle class="st0" cx="1266" cy="648" r="15.5"/>
<circle class="st0" cx="92" cy="724" r="24.5"/>
<rect x="1258" y="51" class="st0" width="38" height="38"/>
<rect x="410" y="632" class="st0" width="38" height="38"/>
<rect x="195.04" y="33.97" transform="matrix(0.7071 0.7071 -0.7071 0.7071 88.1748 -130.8729)" class="st0" width="14.05" height="14.05"/>
<rect x="1231" y="357" transform="matrix(0.7071 -0.7071 0.7071 0.7071 102.5225 988.5114)" class="st0" width="27" height="27"/>
<rect x="29" y="346" class="st0" width="38" height="38"/>
<rect x="1002" y="629" transform="matrix(0.7071 0.7071 -0.7071 0.7071 757.2491 -532.1612)" class="st0" width="38" height="38"/>
<circle class="st1" cx="209" cy="508" r="7"/>
<polygon class="st1" points="608,54 596.5,54 596.5,42.5 588.5,42.5 588.5,54 577,54 577,62 588.5,62 588.5,73.5 596.5,73.5 
	596.5,62 608,62 "/>
<polygon class="st1" points="1107.63,469.63 1096.13,469.63 1096.13,458.13 1088.13,458.13 1088.13,469.63 1076.63,469.63 
	1076.63,477.63 1088.13,477.63 1088.13,489.13 1096.13,489.13 1096.13,477.63 1107.63,477.63 "/>
<polygon class="st1" points="215.63,673.34 207.5,665.2 215.63,657.07 209.97,651.42 201.84,659.55 193.71,651.42 188.05,657.07 
	196.19,665.2 188.05,673.34 193.71,678.99 201.84,670.86 209.97,678.99 "/>
<polygon class="st1" points="289.46,255.54 284.39,250.46 289.46,245.39 285.93,241.86 280.86,246.93 275.79,241.86 272.26,245.39 
	277.33,250.46 272.26,255.54 275.79,259.07 280.86,253.99 285.93,259.07 "/>
<polygon class="st1" points="1141.39,60.63 1128.19,47.44 1141.39,34.24 1132.21,25.06 1119.01,38.26 1105.81,25.06 1096.63,34.24 
	1109.83,47.44 1096.63,60.63 1105.81,69.81 1119.01,56.62 1132.21,69.81 "/>
<polygon class="st1" points="968.41,707.4 963.33,702.33 968.41,697.26 964.88,693.73 959.81,698.8 954.73,693.73 951.2,697.26 
	956.28,702.33 951.2,707.4 954.73,710.93 959.81,705.86 964.88,710.93 "/>
</svg>
